<?xml version="1.0" encoding="utf-8"?>
<svg width="1em" height="1em" viewBox="0 0 512 512" xmlns="http://www.w3.org/2000/svg" xmlns:bx="https://boxy-svg.com">
  <defs>
    <bx:guide x="239.762" y="228.104" angle="180"/>
    <bx:guide x="271.978" y="224.687" angle="-180"/>
    <bx:guide x="222.14" y="231.024" angle="90"/>
    <bx:guide x="213.458" y="287.371" angle="90"/>
    <bx:guide x="250.833" y="255.97" angle="90"/>
    <bx:guide x="223.70078596957111" y="226.40970202777154" angle="180"/>
    <bx:guide x="258.08220601134974" y="189.02424698613228" angle="0"/>
    <bx:guide x="270.1953968372536" y="237.9770707930564" angle="0"/>
  </defs>
  <path d="M 417.341 312.701 L 269.247 254.258 L 417.341 199.299 C 425.905 194.596 428.929 183.772 424.044 175.312 L 409.9 150.813 C 405.015 142.352 394.13 139.56 385.775 144.625 L 262.004 241.746 L 287.566 87.924 C 287.775 78.156 279.915 70.125 270.144 70.125 L 241.856 70.125 C 232.086 70.125 224.225 78.156 224.435 87.924 L 246.372 241.413 L 126.225 144.625 C 117.871 139.56 106.985 142.353 102.1 150.814 L 87.956 175.312 C 83.071 183.773 86.096 194.597 94.66 199.3 L 239.331 254.467 L 94.659 312.701 C 86.095 317.404 83.07 328.228 87.956 336.688 L 102.1 361.187 C 106.985 369.648 117.871 372.44 126.225 367.375 L 246.106 267.32 L 224.434 424.076 C 224.225 433.844 232.086 441.875 241.856 441.875 L 270.145 441.875 C 279.915 441.875 287.776 433.844 287.567 424.076 L 262.02 267.219 L 385.775 367.374 C 394.129 372.44 405.015 369.647 409.9 361.186 L 424.044 336.688 C 428.929 328.227 425.905 317.404 417.341 312.701" style="fill: rgb(224, 184, 35);"/>
</svg>